<?xml version="1.0" encoding="utf-8"?>
<!-- Generator: Adobe Illustrator 21.0.0, SVG Export Plug-In . SVG Version: 6.00 Build 0)  -->
<svg version="1.1" id="Capa_1" xmlns="http://www.w3.org/2000/svg" xmlns:xlink="http://www.w3.org/1999/xlink" x="0px" y="0px"
	 viewBox="0 0 596 252" style="enable-background:new 0 0 596 252;" xml:space="preserve">
<style type="text/css">
	.st0{fill:#FFFFFF;}
	.st1{fill:#FFFFFF;stroke:#FFFFFF;stroke-width:2;stroke-miterlimit:10;}
</style>
<path class="st0" d="M2.9,6.7c0,3.6,2.8,6.5,6.4,6.7C68.5,16.8,115.7,66,115.7,126S68.5,235.2,9.3,238.6c-3.6,0.2-6.4,3.1-6.4,6.7v0
	c0,3.9,3.3,6.9,7.1,6.7c66.3-3.7,119.1-58.8,119.1-126S76.3,3.7,10,0C6.2-0.2,2.9,2.8,2.9,6.7L2.9,6.7z"/>
<circle class="st0" cx="152.3" cy="127" r="9.4"/>
<circle class="st0" cx="184.2" cy="127" r="13.1"/>
<circle class="st0" cx="219.8" cy="127" r="15"/>
<ellipse transform="matrix(0.1601 -0.9871 0.9871 0.1601 339.5043 653.998)" class="st0" cx="554" cy="127.5" rx="25.5" ry="25.5"/>
<circle class="st0" cx="251.7" cy="127" r="9.4"/>
<circle class="st0" cx="236.7" cy="113.9" r="1.9"/>
<circle class="st0" cx="593.7" cy="127.9" r="1.9"/>
<polygon class="st0" points="270.6,135 269.7,133 270.7,133 272.6,135.1 "/>
<polygon class="st0" points="272.5,138.1 271.6,136.1 272.6,136.1 274.5,138.2 "/>
<polygon class="st0" points="267,137.4 269.1,136.5 269,137.5 266.9,139.4 "/>
<polygon class="st0" points="272.3,143.1 271.4,141.1 272.4,141.1 274.3,143.2 "/>
<polygon class="st0" points="268.9,143.7 270.3,143 270.3,143.5 269,144.6 "/>
<polygon class="st0" points="271.4,140.1 270.5,138 271.5,138.1 273.4,140.2 "/>
<polygon class="st0" points="268.3,141.9 267.4,139.9 268.4,139.9 270.3,142 "/>
<polygon class="st0" points="272.2,123.1 271.3,121.1 272.3,121.1 274.2,123.2 "/>
<polygon class="st0" points="273.5,118.2 274.3,120.3 273.3,120.2 271.5,118 "/>
<polygon class="st0" points="270.7,114 271.5,116.1 270.5,116 268.7,113.9 "/>
<polygon class="st0" points="272.8,111.1 273.6,113.2 272.6,113.1 270.8,110.9 "/>
<polygon class="st0" points="268.6,115.9 269.4,118 268.4,117.9 266.6,115.8 "/>
<polygon class="st0" points="271,127 270.1,125 271.1,125 273,127.1 "/>
<polygon class="st0" points="269,120.7 268.8,118.5 269.7,118.9 270.9,121.5 "/>
<polygon class="st0" points="266.9,122.6 266.7,120.4 267.7,120.8 268.8,123.4 "/>
<polygon class="st0" points="268.7,127.7 268.5,125.5 269.4,125.9 270.5,128.5 "/>
<polygon class="st0" points="270.6,129.3 272.8,128.9 272.5,129.9 270,131.2 "/>
<polygon class="st0" points="267.4,132.2 269.6,131.8 269.3,132.7 266.8,134.1 "/>
<polygon class="st0" points="270,170 269.1,168 270.1,168 272,170.1 "/>
<polygon class="st0" points="271.8,173.1 270.9,171.1 271.9,171.1 273.8,173.2 "/>
<polygon class="st0" points="266.4,172.4 268.4,171.5 268.4,172.5 266.3,174.4 "/>
<polygon class="st0" points="271.6,178.1 270.7,176.1 271.7,176.1 273.6,178.2 "/>
<polygon class="st0" points="268.2,178.7 269.6,178 269.7,178.5 268.4,179.6 "/>
<polygon class="st0" points="270.8,175.1 269.9,173 270.9,173.1 272.8,175.2 "/>
<polygon class="st0" points="267.7,176.9 266.8,174.9 267.8,174.9 269.7,177 "/>
<polygon class="st0" points="271.6,158.1 270.7,156.1 271.6,156.1 273.6,158.2 "/>
<polygon class="st0" points="272.8,153.2 273.6,155.3 272.6,155.2 270.8,153 "/>
<polygon class="st0" points="270,149 270.8,151.1 269.8,151 268,148.9 "/>
<polygon class="st0" points="272.2,146.1 273,148.2 272,148.1 270.2,146 "/>
<polygon class="st0" points="267.9,151 268.7,153 267.7,152.9 265.9,150.8 "/>
<polygon class="st0" points="270.4,162.1 269.5,160 270.5,160.1 272.4,162.1 "/>
<polygon class="st0" points="268.4,155.7 268.2,153.5 269.1,153.9 270.2,156.5 "/>
<polygon class="st0" points="266.3,157.6 266.1,155.4 267,155.8 268.1,158.4 "/>
<polygon class="st0" points="268,162.7 267.8,160.5 268.8,160.9 269.9,163.5 "/>
<polygon class="st0" points="269.9,164.3 272.1,163.9 271.8,164.9 269.3,166.2 "/>
<polygon class="st0" points="266.8,167.2 269,166.8 268.7,167.7 266.2,169.1 "/>
<polygon class="st0" points="269.1,75.6 270.5,75 270.5,75.4 269.2,76.6 "/>
<polygon class="st0" points="270.2,102 269.3,99.9 270.3,100 272.2,102.1 "/>
<polygon class="st0" points="272,105.1 271.1,103 272.1,103.1 274,105.2 "/>
<polygon class="st0" points="266.6,104.3 268.6,103.4 268.6,104.4 266.5,106.3 "/>
<polygon class="st0" points="271.8,110.1 270.9,108 271.9,108.1 273.8,110.2 "/>
<polygon class="st0" points="268.4,110.7 269.8,110 269.9,110.4 268.6,111.6 "/>
<polygon class="st0" points="271,107 270.1,105 271,105 273,107.1 "/>
<polygon class="st0" points="267.9,108.9 267,106.8 268,106.9 269.9,109 "/>
<polygon class="st0" points="271.8,90 270.8,88 271.8,88 273.8,90.1 "/>
<polygon class="st0" points="273,85.1 273.8,87.2 272.8,87.1 271,84.9 "/>
<polygon class="st0" points="270.2,81 271,83.1 270,83 268.2,80.8 "/>
<polygon class="st0" points="272.4,78.1 273.2,80.2 272.2,80.1 270.4,77.9 "/>
<polygon class="st0" points="268.1,82.9 268.9,85 267.9,84.9 266.1,82.7 "/>
<polygon class="st0" points="270.6,94 269.7,91.9 270.7,92 272.6,94.1 "/>
<polygon class="st0" points="268.6,87.7 268.4,85.4 269.3,85.8 270.4,88.4 "/>
<polygon class="st0" points="266.5,89.6 266.3,87.3 267.2,87.7 268.3,90.3 "/>
<polygon class="st0" points="268.2,94.7 268,92.4 269,92.8 270.1,95.4 "/>
<polygon class="st0" points="270.1,96.2 272.3,95.9 272,96.8 269.5,98.2 "/>
<polygon class="st0" points="267,99.1 269.2,98.7 268.9,99.7 266.4,101 "/>
<g>
	<path class="st0" d="M343.3,102c-14-14-36.7-14-50.7,0c-14,14-14,36.7,0,50.7c14,14,36.7,14,50.7,0
		C357.3,138.7,357.3,116,343.3,102z M334.5,146.7c-0.4,0.6-0.8,1.2-1.3,1.8c-1.7,1.8-4,2.9-6.4,3c-0.1,0-0.3,0-0.4,0
		c-1.9,0-3.7-0.6-5.2-1.6c-2.5,0.2-6.6,1.4-6.6,1.4c1.3-0.5,2.5-3.9,3.2-6.4c-0.1-0.4-0.1-0.8-0.2-1.3c-0.1-2.1,0.6-4.1,2.1-5.6
		c2.5-2.7,6.7-2.9,9.4-0.4c2.3,2.1,2.5,5.8,0.3,8.1c-0.9,1-2.1,1.5-3.5,1.6c-0.4,0-0.9,0-1.3-0.1c1.9,0.7,4.1,0.2,5.6-1.4
		c2.6-2.9,2.5-7.3-0.4-10c-1.9-1.7-4.6-1.3-6.6-0.6c-2.6,0.9-5.5,2.9-7.6,5.1c-0.7,0.8-2,0.9-2.8,0.1c-0.8-0.7-0.9-2-0.1-2.8
		c4.8-5.2,14.1-10.1,19.8-4.8c0.7,0.7,1.3,1.4,1.8,2.2c3.3,1.8,11,3.2,11,3.2C342.7,138,337.1,143.8,334.5,146.7z"/>
	<path class="st0" d="M325.8,143.3c0.1,0,0.4-0.1,0.7-0.3c0.6-0.7,0.6-1.8-0.1-2.4c-0.3-0.3-0.7-0.5-1.2-0.6
		c0.6,0.8,0.5,1.8-0.1,2.6c-0.1,0.1-0.1,0.2-0.1,0.3c0,0.1,0,0.2,0.1,0.3C325.3,143.3,325.6,143.3,325.8,143.3z"/>
</g>
<path class="st1" d="M516.1,144.5"/>
<path class="st0" d="M522,127.5c0-14.1-11.4-25.5-25.5-25.5c-5.7,0-10.9,1.8-15.1,5c-0.6,5.5-0.9,11.4-0.9,17.5
	c0,8.6,0.6,16.8,1.7,24.1c4.1,2.8,9,4.4,14.3,4.4C510.6,153,522,141.6,522,127.5z"/>
<path class="st0" d="M480.4,107c-6.3,4.6-10.4,12.1-10.4,20.5c0,8.8,4.4,16.5,11.2,21.1c-1.1-7.3-1.7-15.5-1.7-24.1
	C479.5,118.4,479.8,112.5,480.4,107z"/>
<path class="st0" d="M497.5,67.8c9.5,0,17.5,26,17.5,56.8s-8,56.8-17.5,56.8s-17.5-26-17.5-56.8c0-14.4,2.2-28.8,6.3-40.4
	C489.8,74.2,494.2,67.8,497.5,67.8 M497.5,67c-7.4,0-18.2,25.7-18.2,57.5s8.2,57.5,18.2,57.5s18.2-25.7,18.2-57.5S507.6,67,497.5,67
	L497.5,67z"/>
<g>
	<path class="st0" d="M449.8,129.2c0,0.2,0,0.4,0,0.6c0,0.7,0,1.4-0.1,2.2c-6.9,5-15.7,10-25.8,14.2c-11.7,4.9-23.3,8.1-33.3,9.6
		c-0.7-0.6-1.3-1.2-1.9-1.8c-0.2-0.2-0.4-0.4-0.6-0.6c-0.1-0.1-0.2-0.2-0.3-0.4c8.8-0.2,20.8-2.8,35.8-8.9
		C435.6,139.3,444.2,134.1,449.8,129.2z"/>
	<path class="st0" d="M425.5,147.4c-11.7,4.9-23.4,8.2-33.4,9.6c14.1,10.9,34.4,9.9,47.3-3c5.5-5.5,8.8-12.3,10-19.4
		C442.7,139.1,434.7,143.5,425.5,147.4z"/>
</g>
<path class="st0" d="M362.7,151.6c-6-9.8,12.4-27.5,41.1-39.6c25-10.5,49.5-13.3,59.4-7.4c-8.5-7.4-34.5-5-61.1,6.2
	c-9.6,4-18,8.7-24.7,13.5c-13.5,9.6-20.4,19.6-16.4,26.1c0.8,1.3,1.9,2.3,3.4,3.2C363.7,153,363.2,152.3,362.7,151.6z"/>
<g>
	<path class="st0" d="M391,155.6c9-1.3,19.5-4.2,30.3-8.6c13-5.4,24.6-12.2,32.5-19.2c8-7.1,11.3-13.5,9.4-18.1
		c-1.9-4.6-9-7.1-19.5-6.7c-10.7,0.3-23.7,3.5-36.6,8.8c-12.9,5.3-24.5,12.3-32.5,19.7c-7.9,7.2-11.3,14-9.4,18.6
		c1.7,4.2,7.7,6.3,16.2,6.3C384.4,156.3,387.6,156.1,391,155.6z M365.8,149.8c-1.5-3.6,0.5-8.7,5.6-14.4c2.6-3.3,6.7-7,12.7-10.9
		c6.7-4.6,14.7-8.9,23.3-12.5c12.8-5.3,25.8-8.4,36.4-8.7c0.6,0,1.3,0,1.9,0c9.2,0,15.4,2.3,17.1,6.5c1.8,4.4-1.5,10.7-9.3,17.6
		c-7.9,7-19.4,13.8-32.4,19.1C394.4,157.5,369.6,159,365.8,149.8z"/>
</g>
<g>
	<path class="st0" d="M459.8,110.4c-2.2-3.6-9-6.1-19.2-5.8c0.3,0.4,0.7,0.8,1,1.2c8.4,0,13.7,2.4,15.8,5.8
		c2.5,4.1,0.5,10.6-7.7,17.6c-5.7,4.9-14.3,10-26.3,14.9c-15,6.1-27,8.7-35.8,8.9h0c-8.4,0.2-13.8-1.9-15.9-5.3
		c-2.4-3.9-0.8-9.6,6.4-16.1c-0.1-0.8-0.1-1.7-0.1-2.5c-1.1,0.9-2.1,1.8-3.1,2.7c-1.4,1.3-2.6,2.5-3.7,3.7c-3.4,4.4-4,8.2-2.2,11.1
		c2.3,3.7,8.8,6.7,18.9,6.8c8.7,0.1,20.2-1.9,33.8-7.4c12.2-4.9,21.5-10.7,27.9-16.2C459,121.9,462.3,114.5,459.8,110.4z"/>
</g>
<g>
	<path class="st0" d="M449.8,129.2c-5.7,4.9-14.3,10-26.3,14.9c-15,6.1-27,8.7-35.8,8.9c-5.7-6.1-8.8-13.7-9.4-21.4
		c-0.1-0.8-0.1-1.7-0.1-2.5c-0.1-9.3,3.4-18.7,10.5-25.8c14-14,36.7-14,50.7,0c0.4,0.5,0.9,0.9,1.3,1.4c0.3,0.4,0.7,0.8,1,1.2
		C447.3,112.6,450,120.9,449.8,129.2z"/>
</g>
<path class="st0" d="M146.4,187.1h20.2c1.4,0,2.6,1.2,2.6,2.6l0,0c0,1.4-1.2,2.6-2.6,2.6h-4.7c-1.4,0-2.6,1.2-2.6,2.6v27.6
	c0,1.4-1.2,2.6-2.6,2.6h-0.4c-1.4,0-2.6-1.2-2.6-2.6v-27.6c0-1.4-1.2-2.6-2.6-2.6h-4.7c-1.4,0-2.6-1.2-2.6-2.6l0,0
	C143.8,188.2,145,187.1,146.4,187.1z"/>
<path class="st0" d="M176.6,186.3L176.6,186.3c1.6,0,2.8,1.3,2.8,2.8v9.3c0,2.2,2.4,3.5,4.3,2.4c0,0,0.1,0,0.1-0.1
	c1.4-0.7,3-1.1,5-1.1c2.3,0,4.2,0.8,5.9,2.4c1.7,1.6,2.5,3.5,2.5,5.7v14.3c0,1.6-1.3,2.8-2.8,2.8l0,0c-1.6,0-2.8-1.3-2.8-2.8v-12.9
	c0-1.6-0.4-2.8-1.3-3.7c-0.9-0.9-2-1.4-3.4-1.4c-2,0-3.8,0.7-5.2,2.1c-1.4,1.4-2.2,3.1-2.2,5.1v10.7c0,1.6-1.3,2.8-2.8,2.8h0
	c-1.6,0-2.8-1.3-2.8-2.8v-33C173.7,187.6,175,186.3,176.6,186.3z"/>
<path class="st0" d="M226.9,213.7l-16,0c-1.5,0-2.5,1.6-1.8,2.9c0.6,1.1,1.4,2,2.4,2.6c1.8,1.2,3.7,1.7,5.8,1.7
	c2.6,0,4.8-0.8,6.7-2.3c0.9-0.7,2.1-0.8,3-0.2l0.1,0.1c1.4,0.9,1.4,2.9,0.1,3.9c-2.8,2.2-6.1,3.3-10.1,3.3c-4,0-7.3-1.3-10-3.8
	c-2.7-2.5-4-5.6-4-9.3c0-3.5,1.4-6.5,4.1-9c2.7-2.6,6-3.8,10-3.8c3.9,0,7.2,1.3,9.9,3.9c1.7,1.6,2.8,3.4,3.5,5.5
	C231,211.5,229.3,213.7,226.9,213.7z M211.4,209.6l10.9,0c1.3,0,1.9-1.5,1-2.4c-1.7-1.8-3.8-2.6-6.3-2.6c-2.8,0-5.1,0.9-6.7,2.7
	C209.4,208.1,210.1,209.6,211.4,209.6z"/>
<path class="st0" d="M545.2,213.7l-16,0c-1.5,0-2.5,1.6-1.8,2.9c0.6,1.1,1.4,2,2.4,2.6c1.8,1.2,3.7,1.7,5.8,1.7
	c2.6,0,4.8-0.8,6.7-2.3c0.9-0.7,2.1-0.8,3-0.2l0.1,0.1c1.4,0.9,1.4,2.9,0.1,3.9c-2.8,2.2-6.1,3.3-10.1,3.3c-4,0-7.3-1.3-10-3.8
	s-4-5.6-4-9.3c0-3.5,1.4-6.5,4.1-9c2.7-2.6,6-3.8,10-3.8c3.9,0,7.2,1.3,9.9,3.9c1.7,1.6,2.8,3.4,3.5,5.5
	C549.3,211.5,547.6,213.7,545.2,213.7z M529.6,209.6l10.9,0c1.3,0,1.9-1.5,1-2.4c-1.7-1.8-3.8-2.6-6.3-2.6c-2.8,0-5.1,0.9-6.7,2.7
	C527.7,208.1,528.4,209.6,529.6,209.6z"/>
<path class="st0" d="M279,193.3L279,193.3c-1,0.7-2.4,0.7-3.4-0.1c-0.6-0.5-1.2-0.9-1.7-1.2c-1-0.6-2.4-0.8-4.3-0.8
	c-2,0-3.7,0.4-5,1.3c-1.3,0.8-1.9,1.9-1.9,3.3c0,1.1,0.6,2.2,1.7,3c1.1,0.9,3,1.8,5.7,2.9c2.7,1,4.7,2,6.2,2.9
	c1.5,0.9,2.7,1.9,3.7,3c1,1.1,1.7,2.2,2.1,3.5c0.5,1.2,0.7,2.5,0.7,3.8c0,3.2-1.3,5.8-3.8,8.1c-2.5,2.2-5.5,3.3-9.1,3.3
	c-3.5,0-6.5-0.9-9.2-2.6c-1.7-1.1-3.1-2.6-4.3-4.4c-1.1-1.6-0.3-3.8,1.6-4.3l0.1,0c1.2-0.3,2.4,0.1,3.1,1.1c2,3.1,4.9,4.7,8.5,4.7
	c2.1,0,3.8-0.6,5.1-1.7c1.4-1.1,2.1-2.6,2.1-4.3c0-1-0.4-2.1-1.1-3.1c-0.7-1-1.6-1.9-2.7-2.6c-1.1-0.7-2.8-1.4-5.1-2.3
	c-2.3-0.9-4.1-1.7-5.4-2.4c-1.3-0.7-2.3-1.6-3.2-2.6c-0.9-1-1.6-2-2-3c-0.4-1-0.6-2.1-0.6-3.2c0-2.7,1.2-5,3.6-7
	c2.4-1.9,5.3-2.9,8.7-2.9c2.3,0,4.5,0.4,6.9,1.3c1.1,0.4,2.1,0.9,3,1.5C280.5,189.8,280.5,192.2,279,193.3z"/>
<path class="st0" d="M287.7,212.6c0-3.4,1.4-6.3,4.3-9c2.9-2.6,6.2-3.9,10-3.9c3.9,0,7.2,1.3,10.1,3.9c2.9,2.6,4.3,5.6,4.3,9
	c0,3.5-1.4,6.5-4.2,9.1c-2.8,2.6-6.1,3.9-9.8,3.9c-4,0-7.4-1.3-10.3-3.9C289.2,219.2,287.7,216.2,287.7,212.6z M311,212.7
	c0-2.1-0.9-3.9-2.6-5.5c-1.7-1.5-3.8-2.3-6.2-2.3c-2.5,0-4.6,0.8-6.3,2.3c-1.8,1.6-2.7,3.4-2.7,5.6c0,2.1,0.9,3.9,2.7,5.4
	c1.8,1.6,3.9,2.3,6.3,2.3c2.3,0,4.4-0.8,6.2-2.4C310.1,216.6,311,214.8,311,212.7z"/>
<path class="st0" d="M326.1,186.3L326.1,186.3c1.6,0,2.8,1.3,2.8,2.8v33c0,1.6-1.3,2.8-2.8,2.8l0,0c-1.6,0-2.8-1.3-2.8-2.8v-33
	C323.3,187.6,324.6,186.3,326.1,186.3z"/>
<path class="st0" d="M362.6,200.4L362.6,200.4c1.6,0,2.8,1.2,2.8,2.7v19c0,1.6-1.3,2.8-2.8,2.8h0c-1.6,0-2.8-1.3-2.8-2.8v-1.8
	c0-0.1-0.1-0.1-0.2,0c-2.7,3.6-6.1,5.4-10.1,5.4c-3.5,0-6.6-1.3-9.1-3.8c-2.5-2.5-3.8-5.6-3.8-9.3c0-3.4,1.3-6.4,3.8-9
	c2.5-2.6,5.5-3.9,8.9-3.9c2.1,0,4.1,0.5,6,1.6c1.8,1,3.2,2.3,4.2,3.9c0,0.1,0.2,0,0.2,0v-1.9C359.7,201.7,361,200.4,362.6,200.4z
	 M360.5,212.8c0-2.2-0.9-4.2-2.6-5.8c-1.5-1.4-3.3-2.2-5.3-2.4c-2.8-0.3-5.7,0.7-7.7,2.7c-1.5,1.5-2.3,3.3-2.3,5.2
	c0,2.3,0.9,4.3,2.6,5.9c1.7,1.6,3.8,2.4,6.3,2.4c2.5,0,4.6-0.8,6.3-2.4C359.6,217,360.5,215,360.5,212.8z"/>
<path class="st0" d="M380.2,201.7L380.2,201.7c0,1.1,1.4,1.7,2.2,0.9c0.5-0.6,1-1.1,1.5-1.4c1.2-0.9,2.8-1.4,4.7-1.4
	c0.2,0,0.5,0,0.9,0.1c0.8,0.1,1.2,0.9,1,1.6l-0.9,2.8c-0.2,0.6-0.8,0.9-1.4,0.8c-0.5-0.1-0.9-0.1-1.1-0.1c-1.9,0-3.5,0.6-4.8,1.8
	c-1.3,1.2-1.9,2.7-1.9,4.6v10.8c0,1.6-1.3,2.8-2.8,2.8h0c-1.6,0-2.8-1.3-2.8-2.8v-18.9c0-1.6,1.3-2.8,2.8-2.8h1.4
	C379.7,200.4,380.2,201,380.2,201.7z"/>
<path class="st0" d="M437.6,193.3L437.6,193.3c-1,0.7-2.4,0.7-3.4-0.1c-0.6-0.5-1.2-0.9-1.7-1.2c-1-0.6-2.4-0.8-4.3-0.8
	c-2,0-3.7,0.4-5,1.3c-1.3,0.8-1.9,1.9-1.9,3.3c0,1.1,0.6,2.2,1.7,3c1.1,0.9,3,1.8,5.7,2.9c2.7,1,4.7,2,6.2,2.9
	c1.5,0.9,2.7,1.9,3.7,3c1,1.1,1.7,2.2,2.1,3.5c0.5,1.2,0.7,2.5,0.7,3.8c0,3.2-1.3,5.8-3.8,8.1c-2.5,2.2-5.5,3.3-9.1,3.3
	c-3.5,0-6.5-0.9-9.2-2.6c-1.7-1.1-3.1-2.6-4.3-4.4c-1.1-1.6-0.3-3.8,1.6-4.3l0.1,0c1.2-0.3,2.4,0.1,3.1,1.1c2,3.1,4.9,4.7,8.5,4.7
	c2.1,0,3.8-0.6,5.1-1.7c1.4-1.1,2.1-2.6,2.1-4.3c0-1-0.4-2.1-1.1-3.1c-0.7-1-1.6-1.9-2.7-2.6c-1.1-0.7-2.8-1.4-5.1-2.3
	c-2.3-0.9-4.1-1.7-5.4-2.4c-1.3-0.7-2.3-1.6-3.2-2.6c-0.9-1-1.6-2-2-3c-0.4-1-0.6-2.1-0.6-3.2c0-2.7,1.2-5,3.6-7
	c2.4-1.9,5.3-2.9,8.7-2.9c2.3,0,4.5,0.4,6.9,1.3c1.1,0.4,2.1,0.9,3,1.5C439.1,189.8,439.1,192.2,437.6,193.3z"/>
<path class="st0" d="M451.2,200.4L451.2,200.4c0.8,0,1.6,0.4,2.1,1.1l6.5,8.9c1.1,1.6,3.5,1.4,4.4-0.4l4.1-8.1
	c0.4-0.9,1.3-1.4,2.3-1.4h0c1.9,0,3.2,2,2.3,3.8l-15.5,30.9c-0.4,0.9-1.3,1.4-2.3,1.4H455c-1.9,0-3.2-2-2.3-3.8l6.3-12.4
	c0.4-0.9,0.4-1.9-0.2-2.7l-9.6-13.1C447.8,202.9,449.1,200.4,451.2,200.4z"/>
<path class="st0" d="M494.9,205.3L494.9,205.3c-0.8,0.7-1.9,0.7-2.7,0.2c-0.4-0.2-0.8-0.4-1.2-0.6c-0.7-0.3-1.6-0.5-2.5-0.5
	c-2.3,0-3.4,0.8-3.4,2.3c0,1.1,1.5,2.2,4.4,3.2c2.9,1,5,2.2,6.3,3.4c1.3,1.3,1.9,2.8,1.9,4.5c0,2.1-0.9,3.9-2.8,5.4
	c-1.8,1.5-4,2.3-6.5,2.3c-2.6,0-4.9-0.8-6.8-2.3c-1.4-1.1-1.1-3.2,0.5-3.9l0.2-0.1c0.7-0.3,1.6-0.2,2.3,0.2c1.3,0.9,2.5,1.3,3.9,1.3
	c1.2,0,2.2-0.3,3.1-0.9c0.9-0.6,1.3-1.3,1.3-2c0-1.4-1.5-2.6-4.6-3.7c-3.1-1.1-5.2-2.2-6.4-3.3c-1.2-1.1-1.8-2.5-1.8-4.2
	c0-2,0.8-3.7,2.5-5.1s3.8-2,6.3-2c1.8,0,3.7,0.6,5.8,1.8C496,202.4,496.1,204.3,494.9,205.3z"/>
<path class="st0" d="M507.4,193.3h1.2c1.2,0,2.2,1,2.2,2.2v2.7c0,1.2,1,2.2,2.2,2.2h1.1c1.2,0,2.2,1,2.2,2.2v0.3
	c0,1.2-1,2.2-2.2,2.2H513c-1.2,0-2.2,1-2.2,2.2v15.4c0,1.2-1,2.2-2.2,2.2h-1.2c-1.2,0-2.2-1-2.2-2.2v-15.4c0-1.2-1-2.2-2.2-2.2l0,0
	c-1.2,0-2.2-1-2.2-2.2v-0.3c0-1.2,1-2.2,2.2-2.2l0,0c1.2,0,2.2-1,2.2-2.2v-2.6C505.1,194.3,506.1,193.3,507.4,193.3z"/>
<path class="st0" d="M554.2,223.5V202c0-0.9,0.7-1.6,1.6-1.6h2.9c0.6,0,1.1,0.5,1.1,1.1l0,0c0,1,1.1,1.4,1.8,0.8
	c0.7-0.6,1.3-1.1,2-1.5c1.2-0.7,2.6-1.1,4.1-1.1c2,0,3.6,0.4,4.8,1.2c0.7,0.5,1.3,1.2,1.9,2c0.6,0.8,1.8,1,2.5,0.2
	c0.9-1,1.8-1.7,2.7-2.2c0.9-0.6,2-1,3.2-1.1c2.8-0.4,5.7,0.6,7.6,2.7c1.1,1.3,1.7,2.8,1.7,4.6v16.3c0,0.9-0.7,1.6-1.6,1.6h-2.5
	c-0.9,0-1.6-0.7-1.6-1.6v-15c0-2.7-1.5-4.1-4.4-4.1c-1.7,0-3.1,0.7-4.3,2.1c-1.2,1.4-1.7,3.1-1.7,5.2v11.8c0,0.9-0.7,1.6-1.6,1.6
	h-2.5c-0.9,0-1.6-0.7-1.6-1.6v-14.3c0-3.2-1.4-4.8-4.3-4.8c-1.7,0-3.2,0.7-4.4,2c-1.2,1.3-1.8,2.9-1.8,4.9v12.3
	c0,0.9-0.7,1.6-1.6,1.6h-2.4C554.9,225,554.2,224.3,554.2,223.5z"/>
</svg>
