<?xml version="1.0" encoding="utf-8"?>
<!-- Generator: Adobe Illustrator 21.0.0, SVG Export Plug-In . SVG Version: 6.00 Build 0)  -->
<svg version="1.1" id="Capa_1" xmlns="http://www.w3.org/2000/svg" xmlns:xlink="http://www.w3.org/1999/xlink" x="0px" y="0px"
	 viewBox="0 0 512 512" style="enable-background:new 0 0 512 512;" xml:space="preserve">
<style type="text/css">
	.st0{fill:#FFFFFF;}
</style>
<g>
	<g>
		<path class="st0" d="M350.3,255.1c7.9-87.6-22.7-176.9-86.9-241.1c-3.9-3.9-10.8-3.9-14.7,0c-64.2,64.2-94.8,153.4-86.9,241.1
			c-22.2,23.9-34.4,54.7-34.4,87.5c0,33.1,12.6,64.6,35.5,88.6c5.6,5.9,19.9,3.2,17.6-9.8c-1.2-6.8-2.7-13.4-2.7-19.9
			c0-16.2,4.9-31.6,14-44.6c1.5,0.8,3.2,1.3,5,1.3h118.5c1.8,0,3.5-0.5,5-1.3c9.1,13,14,28.4,14,44.6c0,6.5-1.7,13-2.7,19.9
			c-2.1,14.4,12.9,14.9,17.6,9.8c22.8-24.1,35.5-55.5,35.5-88.6C384.6,309.8,372.5,278.9,350.3,255.1z M256,36.4
			c18.6,20,33.8,42.5,45.6,66.4h-91.1C222.2,78.8,237.4,56.4,256,36.4L256,36.4z M158,387.4c-6.4-13.9-9.7-29.1-9.7-44.8
			c0-21.2,6.1-41.5,17.5-58.9c0.1,0.8,11,42.5,15.2,53.2C168.5,351.3,160.6,368.7,158,387.4L158,387.4z M308.4,337.3H203.6
			c-29.4-69-29.1-146.1-2.4-213.8h109.6C337.5,191.2,337.8,268.3,308.4,337.3z M331.1,336.9c5.8-14.9,15.1-52.6,15.2-53.2
			c11.4,17.3,17.5,37.6,17.5,58.9c0,15.7-3.4,30.9-9.7,44.8C351.4,368.7,343.5,351.3,331.1,336.9L331.1,336.9z"/>
		<path class="st0" d="M213.9,375.6c-5.8,0-10.4,4.7-10.4,10.4v52.3c0,5.8,4.7,10.4,10.4,10.4s10.4-4.7,10.4-10.4V386
			C224.3,380.2,219.6,375.6,213.9,375.6z"/>
		<path class="st0" d="M256,375.6c-2.9,0-5.5,1.2-7.4,3.1c0,0,0,0-0.1,0.1c-1.2,1.2-2.1,2.8-2.6,4.6c-0.2,0.9-0.4,1.8-0.4,2.8v104.5
			c0,0.8,0.1,1.6,0.3,2.4c1.1,4.6,5.2,8,10.1,8s9-3.4,10.1-8c0.2-0.8,0.3-1.6,0.3-2.4V386c0-1-0.1-1.9-0.4-2.8
			C264.8,378.8,260.8,375.6,256,375.6z"/>
		<path class="st0" d="M298.1,375.6c-5.8,0-10.4,4.7-10.4,10.4v52.3c0,5.8,4.7,10.4,10.4,10.4s10.4-4.7,10.4-10.4V386
			C308.6,380.2,303.9,375.6,298.1,375.6z"/>
	</g>
</g>
</svg>
