<?xml version="1.0" encoding="utf-8"?>
<!-- Generator: Adobe Illustrator 21.0.0, SVG Export Plug-In . SVG Version: 6.00 Build 0)  -->
<svg version="1.1" id="Capa_1" xmlns="http://www.w3.org/2000/svg" xmlns:xlink="http://www.w3.org/1999/xlink" x="0px" y="0px"
	 viewBox="0 0 470 470" style="enable-background:new 0 0 470 470;" xml:space="preserve">
<style type="text/css">
	.st0{fill:#FCFCFC;}
</style>
<g>
	<path class="st0" d="M168.8,205.6l-7.5-2.4c-3.9-1.3-8.2,0.9-9.4,4.8c-1.3,3.9,0.9,8.2,4.8,9.4l7.5,2.4c-1,4.9-1.6,10-1.6,15.1
		s0.6,10.3,1.6,15.1l-7.5,2.4c-3.9,1.3-6.1,5.5-4.8,9.4c1,3.2,4,5.2,7.1,5.2c0.8,0,1.6-0.1,2.3-0.4l7.5-2.4
		c4.2,9.4,10.3,17.7,17.8,24.5l-4.7,6.4c-2.4,3.4-1.7,8,1.7,10.5c1.3,1,2.9,1.4,4.4,1.4c2.3,0,4.6-1.1,6.1-3.1l4.7-6.4
		c8.6,5,18.4,8.3,28.8,9.4v7.9c0,4.1,3.4,7.5,7.5,7.5s7.5-3.4,7.5-7.5v-7.9c10.4-1.1,20.2-4.4,28.8-9.4l4.7,6.4
		c1.5,2,3.8,3.1,6.1,3.1c1.5,0,3.1-0.5,4.4-1.4c3.4-2.4,4.1-7.1,1.7-10.5l-4.7-6.4c7.5-6.8,13.6-15.1,17.8-24.5l7.5,2.4
		c0.8,0.3,1.6,0.4,2.3,0.4c3.2,0,6.1-2,7.1-5.2c1.3-3.9-0.9-8.2-4.8-9.5l-7.5-2.4c1-4.9,1.6-10,1.6-15.1s-0.6-10.3-1.6-15.1l7.5-2.4
		c3.9-1.3,6.1-5.5,4.8-9.5c-1.3-3.9-5.5-6.1-9.5-4.8l-7.5,2.4c-4.2-9.4-10.3-17.7-17.8-24.5l4.7-6.4c2.4-3.4,1.7-8-1.7-10.5
		c-3.3-2.4-8-1.7-10.5,1.7l-4.7,6.4c-8.6-5-18.4-8.3-28.8-9.4V155c0-4.1-3.4-7.5-7.5-7.5s-7.5,3.4-7.5,7.5v7.9
		c-10.4,1.1-20.2,4.4-28.8,9.4l-4.7-6.4c-2.4-3.4-7.1-4.1-10.5-1.7c-3.4,2.4-4.1,7.1-1.7,10.5l4.7,6.4
		C179,187.9,172.9,196.2,168.8,205.6L168.8,205.6z M235,177.5c31.7,0,57.5,25.8,57.5,57.5s-25.8,57.5-57.5,57.5
		s-57.5-25.8-57.5-57.5S203.3,177.5,235,177.5z"/>
	<path class="st0" d="M401.2,68.8C356.8,24.4,297.8,0,235,0S113.2,24.4,68.8,68.8S0,172.2,0,235s24.4,121.8,68.8,166.2
		S172.2,470,235,470c40.2,0,79.9-10.3,114.7-29.9c3.6-2,4.9-6.6,2.9-10.2s-6.6-4.9-10.2-2.9C309.8,445.3,272.6,455,235,455
		c-121.3,0-220-98.7-220-220S113.7,15,235,15s220,98.7,220,220c0,37.6-9.7,74.8-28,107.4c-2,3.6-0.7,8.2,2.9,10.2
		c3.6,2,8.2,0.7,10.2-2.9C459.7,314.9,470,275.2,470,235C470,172.2,445.6,113.2,401.2,68.8z"/>
	<path class="st0" d="M395.9,355.9c-22.1,0-40,17.9-40,40s17.9,40,40,40s40-17.9,40-40S417.9,355.9,395.9,355.9z M395.9,420.9
		c-13.8,0-25-11.2-25-25s11.2-25,25-25s25,11.2,25,25S409.7,420.9,395.9,420.9z"/>
	<path class="st0" d="M121,349c31.4,31.4,72.7,47.2,114,47.2s82.6-15.7,114-47.2c62.9-62.9,62.9-165.2,0-228
		c-45.4-45.4-113.4-59.6-173.3-36c-1,0.4-1.8,0.9-2.6,1.7c-2.9,2.9-2.9,7.7,0,10.6c2.2,2.2,5.5,2.8,8.2,1.6
		c54.2-21.3,115.8-8.5,157,32.7c57,57,57,149.8,0,206.8c-28.5,28.5-66,42.8-103.4,42.8c-37.4,0-74.9-14.3-103.4-42.8
		c-41.2-41.2-54-102.9-32.6-157.1c1.5-3.9-0.4-8.2-4.2-9.7c-3.9-1.5-8.2,0.4-9.7,4.2C61.4,235.6,75.5,303.6,121,349z"/>
	<path class="st0" d="M126.3,86.3c-10.7,0-20.7,4.2-28.3,11.7c-7.6,7.6-11.7,17.6-11.7,28.3S90.4,147,98,154.6
		c7.6,7.6,17.6,11.7,28.3,11.7s20.7-4.2,28.3-11.7c15.6-15.6,15.6-41,0-56.6C147,90.4,137,86.3,126.3,86.3L126.3,86.3z M144,144
		c-4.7,4.7-11,7.3-17.7,7.3s-13-2.6-17.7-7.3c-4.7-4.7-7.3-11-7.3-17.7s2.6-13,7.3-17.7s11-7.3,17.7-7.3s13,2.6,17.7,7.3
		C153.7,118.4,153.7,134.2,144,144z"/>
</g>
</svg>
