<?xml version="1.0"?>
<svg xmlns="http://www.w3.org/2000/svg" height="512px" viewBox="0 -7 459.09573 459" width="512px"><path d="m358.085938 162.773438 8.28125-30.910157 92.730468 24.847657-8.285156 30.910156zm0 0" fill="#FFFFFF"/><path d="m129.441406 444.222656c2.058594.589844 4.265625.316406 6.117188-.757812 1.839844-1.0625 3.179687-2.8125 3.730468-4.863282l50.992188-190.480468h-16.570312l-49.925782 186.3125c-.550781 2.058594-.261718 4.253906.800782 6.101562 1.054687 1.835938 2.804687 3.164063 4.855468 3.6875zm0 0" fill="#FFFFFF"/><path d="m289.097656 440.535156c1.070313-1.859375 1.359375-4.070312.796875-6.144531l-49.894531-186.269531h-16.566406l50.992187 190.496094c.550781 2.042968 1.890625 3.789062 3.726563 4.847656 1.824218 1.085937 4.011718 1.375 6.054687.800781h.066407c2.042968-.542969 3.78125-1.886719 4.824218-3.730469zm0 0" fill="#FFFFFF"/><path d="m286.460938 151.871094 12.421874-46.363282 61.820313 16.5625-12.421875 46.363282zm0 0" fill="#FFFFFF"/><path d="m44.457031 4.191406-15.472656-4.144531-28.984375 108.191406 15.449219 4.136719 26.886719-100.472656c0-.070313.070312-.125.089843-.191406zm0 0" fill="#FFFFFF"/><path d="m55.753906 23.777344-20.707031 77.320312 130.304687 34.863282v-.050782c.175782-.300781.402344-.574218.585938-.878906.972656-1.628906 2.039062-3.199219 3.199219-4.703125.496093-.625 1.046875-1.183594 1.597656-1.785156.953125-1.09375 1.914063-2.167969 2.953125-3.199219.640625-.601562 1.3125-1.152344 1.976562-1.71875 1.03125-.890625 2.078126-1.746094 3.199219-2.539062.730469-.519532 1.472657-1.007813 2.226563-1.476563 1.144531-.730469 2.316406-1.40625 3.511718-2.027344.796876-.40625 1.597657-.796875 2.398438-1.175781 1.273438-.566406 2.566406-1.0625 3.886719-1.527344.800781-.277344 1.601562-.574218 2.402343-.800781 1.472657-.429687 2.976563-.742187 4.496094-1.03125.71875-.136719 1.421875-.320313 2.152344-.421875 2.289062-.335938 4.601562-.503906 6.917969-.503906 1.636719-.003906 3.269531.078125 4.898437.246094.582032.058593 1.132813.183593 1.710938.265624 1.015625.136719 2.046875.253907 3.039062.464844.734375.148438 1.449219.375 2.167969.558594s1.601563.375 2.398437.625c.800782.246094 1.449219.527344 2.167969.796875.722657.273437 1.515625.515625 2.242188.800781.726562.289063 1.351562.65625 2.023437.976563.671875.320312 1.464844.664062 2.167969 1.046875.703125.386718 1.441406.875 2.160156 1.3125.59375.359375 1.207031.695312 1.792969 1.089844.742188.503906 1.4375 1.0625 2.152344 1.597656.511718.386718 1.046875.746094 1.535156 1.152344.679688.554687 1.296875 1.167968 1.945312 1.753906.484376.449218 1 .871094 1.46875 1.34375.601563.589844 1.144532 1.246094 1.714844 1.871094.566406.625.941406 1 1.382813 1.527343.550781.664063 1.039062 1.367188 1.550781 2.066407.402344.542968.800781 1.0625 1.21875 1.597656.460938.679687.863281 1.410156 1.285156 2.121094.425782.710937.800782 1.207031 1.121094 1.839843.320312.632813.703125 1.441407 1.054688 2.167969.351562.726562.679687 1.328125.96875 2.015625.289062.6875.570312 1.519531.847656 2.28125.28125.757813.554687 1.398437.800781 2.121094.25.71875.398437 1.527343.601563 2.285156.199218.761719.429687 1.519531.589843 2.304687.160157.785157.25 1.601563.367188 2.398438.121093.800781.28125 1.601562.371093 2.402344.085938.800781.078126 1.597656.125 2.398437.050782.800781.128907 1.601563.128907 2.402344l12 3.238281 20.65625-77.261718zm0 0" fill="#FFFFFF"/><path d="m246.855469 232.121094v-32h-13.449219c-.703125.472656-1.484375.796875-2.214844 1.246094-1.054687.625-2.101562 1.25-3.199218 1.792968-.800782.398438-1.664063.71875-2.503907 1.070313-1.554687.679687-3.144531 1.269531-4.761719 1.777343h-.085937c-8.972656 2.777344-18.578125 2.777344-27.550781 0h-.113282c-1.613281-.507812-3.195312-1.097656-4.746093-1.777343-.847657-.351563-1.695313-.671875-2.519531-1.070313-1.09375-.542968-2.152344-1.175781-3.199219-1.808594-.726563-.421874-1.503907-.757812-2.199219-1.230468h-13.457031v32zm0 0" fill="#FFFFFF"/><path d="m206.855469 128.121094c-8.492188-.015625-16.640625 3.351562-22.644531 9.355468-6.003907 6.003907-9.371094 14.152344-9.355469 22.644532.035156 10.0625 4.769531 19.53125 12.800781 25.597656 2.742188 2.078125 5.820312 3.667969 9.097656 4.714844 9.957032 3.230468 20.859375 1.476562 29.300782-4.714844 6.726562-5.070312 11.191406-12.578125 12.433593-20.910156.253907-1.550782.378907-3.117188.367188-4.6875 0-17.675782-14.328125-32-32-32zm0 48c-8.835938 0-16-7.164063-16-16 0-8.835938 7.164062-16 16-16 8.835937 0 16 7.164062 16 16 0 8.835937-7.164063 16-16 16zm0 0" fill="#FFFFFF"/></svg>
